<?xml version="1.0" standalone="no"?>
<!DOCTYPE svg PUBLIC "-//W3C//DTD SVG 20010904//EN"
 "http://www.w3.org/TR/2001/REC-SVG-20010904/DTD/svg10.dtd">
<svg version="1.0" xmlns="http://www.w3.org/2000/svg"
 width="330.000000pt" height="110.000000pt" viewBox="0 0 330.000000 110.000000"
 preserveAspectRatio="xMidYMid meet">

<g transform="translate(0.000000,110.000000) scale(0.100000,-0.100000)"
fill="#000000" stroke="none">
<path d="M0 1048 c1 -50 2 -52 14 -29 7 13 31 37 52 53 l38 28 -52 0 -52 0 0
-52z"/>
<path d="M3234 1072 c21 -16 45 -40 52 -53 12 -23 13 -21 14 29 l0 52 -52 0
-52 0 38 -28z"/>
<path d="M100 1067 c-30 -16 -51 -37 -67 -67 -23 -43 -23 -45 -23 -450 0 -405
0 -407 23 -450 16 -30 37 -51 67 -67 l43 -23 1507 0 1507 0 43 23 c30 16 51
37 67 67 23 43 23 45 23 450 0 405 0 407 -23 450 -16 30 -37 51 -67 67 l-43
23 -1507 0 -1507 0 -43 -23z m580 -181 c0 -57 -64 -131 -120 -138 -20 -2 -26
2 -28 20 -7 49 31 104 93 136 45 24 55 20 55 -18z m1040 -97 c0 -90 -2 -100
-17 -97 -15 3 -18 17 -21 101 -3 92 -2 97 18 97 19 0 20 -6 20 -101z m430 3
l0 -99 -46 -1 c-57 0 -84 23 -84 73 0 44 32 79 66 72 21 -4 24 0 24 24 0 22 5
29 20 29 19 0 20 -7 20 -98z m590 69 c0 -24 4 -28 19 -24 10 3 28 0 40 -6 18
-10 21 -21 21 -76 0 -58 -2 -65 -20 -65 -18 0 -20 7 -20 55 0 48 -2 55 -20 55
-18 0 -20 -7 -20 -55 0 -48 -2 -55 -20 -55 -19 0 -20 7 -20 100 0 93 1 100 20
100 15 0 20 -7 20 -29z m-1561 -7 c23 -29 28 -83 10 -116 -13 -25 -68 -48
-114 -48 l-35 0 0 95 0 95 59 0 c52 0 62 -3 80 -26z m1497 -14 c8 0 14 -9 14
-20 0 -11 -7 -20 -15 -20 -10 0 -15 -11 -15 -35 0 -24 5 -35 15 -35 8 0 15 -9
15 -20 0 -22 -12 -25 -41 -10 -14 8 -19 21 -19 55 0 33 -4 45 -15 45 -9 0 -15
9 -15 21 0 15 5 19 15 15 10 -3 15 1 15 13 0 25 24 33 28 9 2 -10 10 -18 18
-18z m-1359 -15 c40 -28 37 -89 -6 -122 -42 -32 -101 4 -101 62 0 62 58 95
107 60z m76 -27 c13 -35 16 -38 16 -17 1 32 24 64 39 55 7 -4 16 -21 20 -39
l9 -32 10 35 9 35 65 1 c92 2 99 -4 99 -81 0 -50 -3 -65 -14 -65 -11 0 -16 15
-18 53 -3 44 -6 52 -23 52 -17 0 -20 -8 -23 -52 -3 -45 -6 -53 -23 -53 -17 0
-19 7 -19 68 l-1 67 -20 -60 c-12 -33 -26 -63 -32 -67 -14 -9 -37 18 -37 44 0
29 -15 21 -25 -14 -15 -51 -37 -41 -62 27 -27 75 -28 85 -4 85 14 0 24 -13 34
-42z m448 32 c11 -6 25 -23 32 -39 l12 -27 45 18 45 18 -47 -6 c-48 -6 -61 3
-35 24 25 21 66 25 93 8 23 -16 25 -22 22 -74 l-3 -56 -40 -2 c-50 -3 -85 13
-85 40 -1 21 -1 21 -12 1 -41 -71 -128 -50 -128 30 0 59 51 91 101 65z m513
-11 c34 -27 35 -71 1 -104 -13 -14 -33 -25 -45 -25 -29 0 -70 44 -70 75 0 30
41 75 68 75 11 0 31 -9 46 -21z m153 -5 c9 -12 13 -38 11 -69 -3 -42 -6 -50
-23 -50 -17 0 -20 8 -23 53 -3 44 -6 53 -20 50 -13 -2 -18 -16 -20 -56 -3 -44
-6 -53 -20 -50 -14 3 -18 17 -20 75 l-3 73 52 -3 c37 -3 56 -9 66 -23z m431
10 c17 -12 22 -25 22 -59 0 -34 -5 -47 -22 -59 -30 -21 -50 -20 -82 5 -36 28
-36 80 0 108 32 25 52 26 82 5z m-2167 -109 c21 -15 39 -29 39 -31 0 -1 -13
-16 -29 -32 -16 -16 -35 -47 -42 -70 -17 -57 9 -125 57 -154 19 -11 34 -23 34
-27 0 -17 -73 -129 -102 -155 -28 -26 -35 -28 -82 -21 -65 9 -127 9 -191 0
l-51 -7 -43 47 c-75 82 -122 219 -107 317 8 50 50 117 90 144 40 25 100 29
152 9 42 -16 49 -16 87 -2 82 30 123 26 188 -18z m1437 -172 c30 -23 49 -70
34 -85 -16 -16 -56 -2 -67 24 -17 39 -115 37 -115 -2 0 -22 28 -38 106 -64 64
-21 88 -46 88 -93 0 -27 -7 -42 -32 -64 -28 -26 -40 -29 -96 -29 -73 0 -109
21 -132 76 -20 47 -18 50 21 46 20 -2 35 -10 35 -17 0 -42 102 -64 131 -29 21
25 -1 45 -77 71 -102 34 -138 85 -98 142 37 52 147 65 202 24z m-1018 13 c0
-2 27 -74 60 -161 33 -87 60 -159 60 -161 0 -2 -16 -4 -35 -4 -31 0 -35 3 -46
40 l-12 41 -65 -3 c-65 -3 -65 -3 -77 -38 -10 -29 -17 -36 -43 -38 -37 -4 -40
9 -16 66 8 20 31 80 51 132 49 131 48 130 88 130 19 0 35 -2 35 -4z m1180 -46
c0 -36 3 -40 25 -40 20 0 25 -5 25 -25 0 -21 -5 -25 -27 -25 l-28 0 3 -65 c3
-56 6 -65 23 -65 14 0 19 -7 19 -30 0 -27 -3 -30 -33 -30 -20 0 -42 8 -55 20
-19 18 -22 32 -22 95 0 68 -2 75 -20 75 -15 0 -20 7 -20 25 0 18 5 25 20 25
15 0 20 7 20 28 0 21 7 31 28 39 41 16 42 16 42 -27z m-854 -64 c30 -30 34
-40 34 -88 0 -53 -15 -88 -50 -115 -19 -15 -75 -17 -101 -3 -18 10 -19 7 -19
-40 0 -49 -1 -50 -30 -50 l-30 0 0 160 0 161 40 -3 c22 -1 43 1 46 5 4 4 23 7
42 7 25 0 43 -9 68 -34z m244 21 c31 -15 60 -71 60 -115 0 -40 -22 -85 -52
-106 -27 -19 -89 -21 -106 -4 -9 9 -12 0 -12 -40 l0 -52 -35 0 -35 0 0 160 0
161 40 -3 c22 -1 43 1 46 5 12 11 67 8 94 -6z m882 -26 c24 -26 28 -40 28 -87
0 -50 -3 -59 -34 -90 -29 -29 -41 -34 -80 -34 -39 0 -52 6 -84 34 -34 32 -37
38 -37 91 0 53 3 59 39 92 36 33 42 35 89 30 41 -3 56 -10 79 -36z m208 3 c0
-31 -3 -36 -19 -31 -11 3 -29 -2 -40 -10 -18 -12 -21 -25 -21 -94 l0 -79 -35
0 -35 0 0 121 0 121 40 -3 c21 -2 42 0 46 4 4 4 20 7 36 7 26 0 28 -3 28 -36z
m174 26 c31 -12 55 -47 63 -94 l6 -36 -87 0 c-47 0 -86 -4 -86 -8 0 -39 72
-60 95 -28 14 18 75 22 75 5 0 -6 -15 -26 -34 -45 -49 -49 -113 -49 -162 0
-31 31 -34 40 -34 91 0 51 3 60 34 91 36 36 78 44 130 24z"/>
<path d="M2064 786 c-10 -26 1 -51 24 -54 19 -3 22 1 22 32 0 30 -4 36 -20 36
-11 0 -23 -6 -26 -14z"/>
<path d="M1080 789 l0 -61 32 6 c37 7 48 20 48 58 0 33 -24 58 -56 58 -23 0
-24 -3 -24 -61z"/>
<path d="M1252 768 c2 -25 8 -33 23 -33 15 0 21 8 23 33 3 29 1 32 -23 32 -24
0 -26 -3 -23 -32z"/>
<path d="M1782 768 c2 -25 8 -33 23 -33 15 0 21 8 23 33 3 29 1 32 -23 32 -24
0 -26 -3 -23 -32z"/>
<path d="M1920 740 c0 -5 9 -10 19 -10 11 0 23 5 26 10 4 6 -5 10 -19 10 -14
0 -26 -4 -26 -10z"/>
<path d="M2286 782 c-10 -30 4 -53 28 -50 31 4 30 62 -1 66 -14 2 -23 -3 -27
-16z"/>
<path d="M2875 790 c-4 -6 5 -10 19 -10 14 0 26 5 26 10 0 6 -9 10 -19 10 -11
0 -23 -4 -26 -10z"/>
<path d="M2875 740 c3 -5 15 -10 25 -10 10 0 22 5 25 10 4 6 -7 10 -25 10 -18
0 -29 -4 -25 -10z"/>
<path d="M1133 430 l-21 -55 35 -3 c19 -2 37 -2 39 1 2 2 -4 28 -14 58 l-19
54 -20 -55z"/>
<path d="M1400 410 c-38 -38 -14 -130 33 -130 7 0 22 6 33 14 27 20 27 102 0
122 -27 19 -42 18 -66 -6z"/>
<path d="M1667 412 c-10 -11 -17 -35 -17 -60 0 -33 5 -45 25 -58 23 -15 27
-15 50 0 35 23 36 97 3 120 -29 21 -41 20 -61 -2z"/>
<path d="M2522 414 c-32 -22 -32 -97 2 -119 50 -33 96 17 81 86 -6 26 -30 49
-52 49 -5 0 -19 -7 -31 -16z"/>
<path d="M2948 419 c-31 -17 -20 -29 27 -29 47 0 58 12 26 30 -24 12 -31 12
-53 -1z"/>
<path d="M0 53 l0 -53 52 0 52 0 -38 28 c-21 16 -45 40 -52 53 -12 23 -13 21
-14 -28z"/>
<path d="M3285 80 c-3 -10 -25 -33 -47 -50 l-42 -30 52 0 52 0 0 50 c0 53 -5
63 -15 30z"/>
</g>
</svg>
